<svg id="body_1" version="1.1" xmlns="http://www.w3.org/2000/svg" xmlns:svg="http://www.w3.org/2000/svg" viewBox="44 833 290.35 74.07">   <path id="path2-4-8" d="m 323.78551,393.75882 v 10.52641 0 h -2.00129 v 0 -2.00129 0 h -0.0613 c -1.12264,1.54663 -3.30525,2.30395 -5.73319,2.30395 -4.97454,0 -8.55445,-3.57992 -8.55445,-11.25306 0,-7.67447 3.57991,-11.25438 8.55445,-11.25438 3.70124,0 6.55184,1.75995 7.88647,6.4305 v 0 l -2.30394,0.45466 c -1.09198,-3.48791 -2.91326,-4.82255 -5.4612,-4.82255 -3.21459,0 -6.24784,2.18395 -6.24784,9.19177 0,7.00649 3.03325,9.19044 6.24784,9.19044 3.57991,0 5.2492,-2.18395 5.2492,-4.85188 v 0 -1.85195 0 h -4.94521 v 0 -2.06262 z" stroke="none" fill="#dd1e25" fill-rule="nonzero" style="stroke-width:1.3333" clip-path="url(#clipPath108-0-0)" transform="translate(-170.12531,502.48453)"></path>   <path id="path3-2" d="m 331.91157,382.38417 v 15.47028 c 0,2.54794 1.81995,4.67055 5.24787,4.67055 3.42791,0 5.24787,-2.12261 5.24787,-4.67055 v 0 -15.47028 0 h 2.42527 v 0 15.28895 c 0,4.36656 -3.15459,6.9145 -7.67314,6.9145 -4.51989,0 -7.67448,-2.54794 -7.67448,-6.9145 v 0 -15.28895 z" stroke="none" fill="#dd1e25" fill-rule="nonzero" style="stroke-width:1.3333" clip-path="url(#clipPath106-9-3)" transform="translate(-170.12531,502.48453)"></path>   <path id="path4-2" d="m 351.13935,382.38404 h 5.88386 c 5.94518,0 9.88908,3.76124 9.88908,10.95039 0,6.43051 -3.45858,10.9504 -10.01041,10.9504 v 0 h -5.76253 z m 2.42528,19.83817 h 3.27725 c 5.03454,0 7.64247,-3.00259 7.64247,-8.88778 0,-6.40117 -3.03192,-8.88777 -7.52114,-8.88777 v 0 h -3.39858 z" stroke="none" fill="#dd1e25" fill-rule="nonzero" style="stroke-width:1.3333" clip-path="url(#clipPath104-4-2)" transform="translate(-170.12531,502.48453)"></path>   <path id="path5-5" d="m 384.74491,382.38417 v 2.06262 0 h -10.70773 v 0 7.34115 0 h 7.61315 v 0 2.06261 0 h -7.61315 v 0 8.37179 0 h 11.31439 v 0 2.06262 0 h -13.74233 v 0 -21.90079 z" stroke="none" fill="#dd1e25" fill-rule="nonzero" style="stroke-width:1.3333" clip-path="url(#clipPath102-5-3)" transform="translate(-170.12531,502.48453)"></path>   <path id="path6-6" d="m 390.14051,404.28469 v -21.90078 0 h 3.48792 v 0 l 9.55576,16.86624 v 0 h 0.12133 v 0 -16.86624 0 h 2.18394 v 0 21.90078 0 h -2.00128 v 0 l -11.10239,-19.53418 v 0 h -0.0613 v 0 19.53418 z" stroke="none" fill="#dd1e25" fill-rule="nonzero" style="stroke-width:1.3333" clip-path="url(#clipPath100-3-1)" transform="translate(-170.12531,502.48453)"></path>   <path id="path7-4" d="m 422.35064,387.96603 c -0.54532,-2.12394 -2.27461,-3.82257 -5.09587,-3.82257 -2.54794,0 -4.06523,1.21331 -4.0959,3.39725 -0.06,4.79188 12.31703,3.57858 12.31703,10.61707 0,3.18392 -1.79063,6.43051 -7.37315,6.43051 -4.79055,0 -6.67184,-3.09459 -7.82514,-5.70386 v 0 l 2.21461,-0.78665 c 0.87998,2.30394 2.51727,4.42789 5.73319,4.42789 3.21459,0 4.82255,-1.69862 4.82255,-3.9439 0,-5.5812 -12.3157,-3.94257 -12.3157,-10.85973 0,-3.15459 2.63994,-5.64119 6.58384,-5.64119 3.39592,0 6.06518,1.78929 7.21849,5.39986 z" stroke="none" fill="#dd1e25" fill-rule="nonzero" style="stroke-width:1.3333" clip-path="url(#clipPath98-9-3)" transform="translate(-170.12531,502.48453)"></path>   <path id="path8-9" d="m 430.5671,382.38404 h 8.0678 c 3.82257,0 6.12785,2.42661 6.12785,5.39987 0,2.39594 -1.06131,4.12523 -3.69991,5.03454 v 0 l 0.0293,0.0613 c 2.45727,0.60665 4.2159,2.79059 4.2159,5.52119 0,3.27592 -2.00129,5.88386 -7.94647,5.88386 v 0 h -6.7945 z m 2.42661,9.40377 h 4.24656 c 3.66924,0 5.09587,-1.87996 5.09587,-3.73191 0,-2.45727 -1.33463,-3.60924 -4.12523,-3.60924 v 0 h -5.2172 z m 0,10.4344 h 4.54922 c 3.57991,0 5.33986,-1.2133 5.33986,-3.9439 0,-2.7906 -2.24527,-4.42789 -5.70252,-4.42789 v 0 h -4.18656 z" stroke="none" fill="#dd1e25" fill-rule="nonzero" style="stroke-width:1.3333" clip-path="url(#clipPath96-4-2)" transform="translate(-170.12531,502.48453)"></path>   <path id="path9-7" d="m 463.9304,382.38417 v 2.06262 0 h -10.70773 v 0 7.34115 0 h 7.61314 v 0 2.06261 0 h -7.61314 v 0 8.37179 0 h 11.31438 v 0 2.06262 0 h -13.74232 v 0 -21.90079 z" stroke="none" fill="#dd1e25" fill-rule="nonzero" style="stroke-width:1.3333" clip-path="url(#clipPath94-1-2)" transform="translate(-170.12531,502.48453)"></path>   <path id="path10-4" d="m 469.08441,404.28496 v -21.90079 0 h 7.03715 c 4.73189,0 7.30915,2.12395 7.30915,5.76253 0,3.09592 -1.78795,4.85454 -4.36789,5.70385 v 0 l 4.64122,10.43441 v 0 h -2.6386 v 0 l -4.42789,-9.94909 v 0 h -5.12787 v 0 9.94909 z m 2.42527,-12.0117 h 4.39856 c 3.33725,0 5.09587,-1.24397 5.09587,-4.00523 0,-2.94126 -2.00129,-3.82124 -5.12654,-3.82124 v 0 h -4.36789 z" stroke="none" fill="#dd1e25" fill-rule="nonzero" style="stroke-width:1.3333" clip-path="url(#clipPath92-5-9)" transform="translate(-170.12531,502.48453)"></path>   <path id="path11-6" d="m 504.08433,393.75882 v 10.52641 0 h -2.00128 v 0 -2.00129 0 h -0.0613 c -1.12264,1.54663 -3.30525,2.30395 -5.73319,2.30395 -4.97455,0 -8.55446,-3.57992 -8.55446,-11.25306 0,-7.67447 3.57991,-11.25438 8.55446,-11.25438 3.70124,0 6.55183,1.75995 7.88647,6.4305 v 0 l -2.30395,0.45466 c -1.09197,-3.48791 -2.91326,-4.82255 -5.46119,-4.82255 -3.21459,0 -6.24785,2.18395 -6.24785,9.19177 0,7.00649 3.03326,9.19044 6.24785,9.19044 3.57991,0 5.2492,-2.18395 5.2492,-4.85188 v 0 -1.85195 0 h -4.94521 v 0 -2.06262 z" stroke="none" fill="#dd1e25" fill-rule="nonzero" style="stroke-width:1.3333" clip-path="url(#clipPath90-4-7)" transform="translate(-170.12531,502.48453)"></path>   <path id="path12-2" d="m 227.52231,343.9658 v -3.00126 c 0,-3.26805 -1.49996,-4.66121 -3.21458,-4.66121 -2.67994,0 -3.53592,1.39316 -3.53592,4.28656 v 0 19.61284 c 0,2.89459 0.85598,4.28789 3.53592,4.28789 2.4106,0 3.21458,-1.3933 3.21458,-3.9119 v 0 -4.66255 0 h 6.64517 v 0 4.44789 c 0,5.46519 -3.21592,9.91308 -9.85975,9.91308 -6.9665,0 -10.18242,-4.44789 -10.18242,-9.91308 v 0 -19.93417 c 0,-5.46653 3.21592,-9.91442 10.18242,-9.91442 6.64383,0 9.85975,4.82255 9.85975,10.6104 v 0 2.83993 z" stroke="none" fill="#dd1e25" fill-rule="nonzero" style="stroke-width:1.3333" clip-path="url(#clipPath88-4-3)" transform="translate(-170.12531,502.48453)"></path>   <path id="path13-2" d="m 240.91518,369.74129 v -38.69103 0 h 6.64516 v 0 15.7556 0 h 7.07316 v 0 -15.7556 0 h 6.64517 v 0 38.69103 0 h -6.64517 v 0 -17.14757 0 h -7.07316 v 0 17.14757 z" stroke="none" fill="#dd1e25" fill-rule="nonzero" style="stroke-width:1.3333" clip-path="url(#clipPath86-7-8)" transform="translate(-170.12531,502.48453)"></path>   <path id="path14-9" d="m 271.56468,369.74062 h -6.43184 v 0 l 7.12782,-38.6897 v 0 h 8.25179 v 0 l 7.12783,38.6897 v 0 h -6.43051 v 0 l -1.17997,-8.57312 v 0 h -7.28782 z m 2.14261,-14.36097 h 5.35853 v 0 l -2.62526,-16.61159 v 0 h -0.10667 z" stroke="none" fill="#dd1e25" fill-rule="nonzero" style="stroke-width:1.3333" clip-path="url(#clipPath84-2-1)" transform="translate(-170.12531,502.48453)"></path>   <path id="path15-4" d="m 293.3708,336.83838 h -6.43051 v 0 -5.78786 0 h 19.50618 v 0 5.78786 0 h -6.43184 v 0 32.90304 0 h -6.64383 z" stroke="none" fill="#dd1e25" fill-rule="nonzero" style="stroke-width:1.3333" clip-path="url(#clipPath82-0-7)" transform="translate(-170.12531,502.48453)"></path>   <path id="path16-8" d="m 314.21281,336.83838 h -6.4305 v 0 -5.78786 0 h 19.50617 v 0 5.78786 0 h -6.43183 v 0 32.90304 0 h -6.64384 z" stroke="none" fill="#dd1e25" fill-rule="nonzero" style="stroke-width:1.3333" clip-path="url(#clipPath80-3-4)" transform="translate(-170.12531,502.48453)"></path>   <path id="path17-8" d="m 331.19545,369.74129 v -38.69103 0 h 17.79156 v 0 5.78785 0 h -11.14639 v 0 9.96775 0 h 8.57445 v 0 5.78786 0 h -8.57445 v 0 11.35971 0 h 11.8957 v 0 5.78786 z" stroke="none" fill="#dd1e25" fill-rule="nonzero" style="stroke-width:1.3333" clip-path="url(#clipPath78-2-5)" transform="translate(-170.12531,502.48453)"></path>   <path id="path18-0" d="m 354.98393,369.74129 v -38.69103 0 h 6.16251 v 0 l 8.0918,22.13278 v 0 h 0.10666 v 0 -22.13278 0 h 6.00252 v 0 38.69103 0 h -5.78653 v 0 l -8.46778,-24.16726 v 0 h -0.10667 v 0 24.16726 z" stroke="none" fill="#dd1e25" fill-rule="nonzero" style="stroke-width:1.3333" clip-path="url(#clipPath76-6-4)" transform="translate(-170.12531,502.48453)"></path>   <path id="path19-2" d="m 390.93743,350.12845 h 10.87839 v 0 19.61284 0 h -3.21592 v 0 l -1.23197,-2.89326 c -1.98261,2.35861 -3.59057,3.42925 -6.6985,3.42925 -5.25187,0 -8.89577,-3.75058 -8.89577,-9.91309 v 0 -19.93417 c 0,-5.46653 3.21592,-9.91442 9.75308,-9.91442 6.64517,0 9.96776,4.82255 9.96776,10.6104 v 0 2.46528 0 h -6.32385 c 0,-5.78786 -1.17863,-7.28782 -3.80523,-7.28782 -1.60663,0 -2.9466,0.96397 -2.9466,4.23323 v 0 19.88083 c 0,2.46394 0.80398,4.0719 3.10792,4.0719 2.67994,0 3.64391,-1.49996 3.64391,-5.35853 v 0 -3.75191 0 h -4.23322 z" stroke="none" fill="#dd1e25" fill-rule="nonzero" style="stroke-width:1.3333" clip-path="url(#clipPath74-1-4)" transform="translate(-170.12531,502.48453)"></path>   <path id="path20-1" d="m 412.42316,369.74062 h -6.43184 v 0 l 7.12782,-38.6897 v 0 h 8.25179 v 0 l 7.12782,38.6897 v 0 h -6.4305 v 0 l -1.17997,-8.57312 v 0 h -7.28782 z m 2.14261,-14.36097 h 5.35853 v 0 l -2.62527,-16.61159 v 0 h -0.10666 z" stroke="none" fill="#dd1e25" fill-rule="nonzero" style="stroke-width:1.3333" clip-path="url(#clipPath72-3-4)" transform="translate(-170.12531,502.48453)"></path>   <path id="path21-2" d="m 432.35172,331.05079 h 6.64517 v 0 29.20594 c 0,2.83993 1.12531,4.23322 3.53725,4.23322 2.4106,0 3.53591,-1.39329 3.53591,-4.23322 v 0 -29.20594 0 h 6.64517 v 0 28.93794 c 0,6.64384 -3.85724,10.28908 -10.18108,10.28908 -6.32251,0 -10.18242,-3.64524 -10.18242,-10.28908 z" stroke="none" fill="#dd1e25" fill-rule="nonzero" style="stroke-width:1.3333" clip-path="url(#clipPath70-1-5)" transform="translate(-170.12531,502.48453)"></path>   <path id="path22-8" d="m 459.14145,369.74129 v -38.69103 0 h 17.79156 v 0 5.78785 0 h -11.14639 v 0 9.96775 0 h 8.57445 v 0 5.78786 0 h -8.57445 v 0 11.35971 0 h 11.8957 v 0 5.78786 z" stroke="none" fill="#dd1e25" fill-rule="nonzero" style="stroke-width:1.3333" clip-path="url(#clipPath68-6-2)" transform="translate(-170.12531,502.48453)"></path>   <path id="path23-7" d="m 489.57563,369.74102 h -6.64517 v 0 -38.68956 0 h 9.3251 c 7.44781,0 11.25172,3.16245 11.25172,11.41438 0,6.21584 -2.41061,8.73445 -4.66122,9.75309 v 0 l 5.62653,17.52209 v 0 h -6.75183 v 0 l -4.71589,-16.02213 c -0.85731,0.108 -2.25061,0.1612 -3.42924,0.1612 z m 0,-21.32733 h 2.3586 c 3.58925,0 4.92921,-1.33997 4.92921,-5.94785 0,-4.60935 -1.33996,-5.94919 -4.92921,-5.94919 v 0 h -2.3586 z" stroke="none" fill="#dd1e25" fill-rule="nonzero" style="stroke-width:1.3333" clip-path="url(#clipPath66-1-8)" transform="translate(-170.12531,502.48453)"></path> </svg>
