<svg id="body_1" version="1.1" xmlns="http://www.w3.org/2000/svg" xmlns:svg="http://www.w3.org/2000/svg" viewBox="425.94 200.43 180.07 174.24">   <g transform="matrix(1.3333 0 0 1.3333 0 0)" id="g38">     <g clip-path="url(#clipPath39)" id="g36">       <path id="path24" transform="matrix(1,0,0,-1,0,841)" d="m 332.5071,618.2375 c -1.187,0 -2.15,1.432 -2.15,3.198 v 0 7.788 c 0,1.766 0.963,3.197 2.15,3.197 1.187,0 2.15,-1.431 2.15,-3.197 v 0 -7.788 c 0,-1.766 -0.963,-3.198 -2.15,-3.198" stroke="none" fill="#565759" fill-rule="nonzero"></path>       <path id="path25" transform="matrix(1,0,0,-1,0,841)" d="m 343.4037,615.0378 c -1.187,0 -2.15,0.962 -2.15,2.149 v 0 16.285 c 0,1.187 0.963,2.149 2.15,2.149 1.187,0 2.15,-0.962 2.15,-2.149 v 0 -16.285 c 0,-1.187 -0.963,-2.149 -2.15,-2.149" stroke="none" fill="#565759" fill-rule="nonzero"></path>       <path id="path26" transform="matrix(1,0,0,-1,0,841)" d="m 354.3003,615.9119 c -1.187,0 -2.15,0.962 -2.15,2.149 v 0 14.536 c 0,1.187 0.963,2.15 2.15,2.15 1.187,0 2.15,-0.963 2.15,-2.15 v 0 -14.536 c 0,-1.187 -0.963,-2.149 -2.15,-2.149" stroke="none" fill="#565759" fill-rule="nonzero"></path>       <path id="path27" transform="matrix(1,0,0,-1,0,841)" d="m 321.6106,615.9119 c -1.187,0 -2.15,0.962 -2.15,2.149 v 0 14.536 c 0,1.187 0.963,2.15 2.15,2.15 1.187,0 2.15,-0.963 2.15,-2.15 v 0 -14.536 c 0,-1.187 -0.963,-2.149 -2.15,-2.149" stroke="none" fill="#565759" fill-rule="nonzero"></path>       <path id="path28" transform="matrix(1,0,0,-1,0,841)" d="m 365.1969,606.1698 c -1.187,0 -2.15,1.267 -2.15,2.831 v 0 32.657 c 0,1.563 0.963,2.831 2.15,2.831 1.187,0 2.15,-1.268 2.15,-2.831 v 0 -32.657 c 0,-1.564 -0.963,-2.831 -2.15,-2.831" stroke="none" fill="#565759" fill-rule="nonzero"></path>       <path id="path29" transform="matrix(1,0,0,-1,0,841)" d="m 376.0935,614.5275 c -1.187,0 -2.15,0.962 -2.15,2.149 v 0 17.305 c 0,1.187 0.963,2.1491 2.15,2.1491 1.187,0 2.15,-0.9621 2.15,-2.1491 v 0 -17.305 c 0,-1.187 -0.963,-2.149 -2.15,-2.149" stroke="none" fill="#565759" fill-rule="nonzero"></path>       <path id="path30" transform="matrix(1,0,0,-1,0,841)" d="m 386.9901,600.5139 c -1.187,0 -2.15,1.294 -2.15,2.89 v 0 43.851 c 0,1.596 0.963,2.89 2.15,2.89 1.187,0 2.15,-1.294 2.15,-2.89 v 0 -43.851 c 0,-1.596 -0.963,-2.89 -2.15,-2.89" stroke="none" fill="#565759" fill-rule="nonzero"></path>       <path id="path31" transform="matrix(1,0,0,-1,0,841)" d="m 397.8867,585.7114 c -1.187,0 -2.15,0.962 -2.15,2.149 v 0 74.937 c 0,1.187 0.963,2.15 2.15,2.15 1.187,0 2.15,-0.963 2.15,-2.15 v 0 -74.937 c 0,-1.187 -0.963,-2.149 -2.15,-2.149" stroke="none" fill="#565759" fill-rule="nonzero"></path>       <path id="path32" transform="matrix(1,0,0,-1,0,841)" d="m 408.7832,570.1766 c -1.187,0 -2.15,0.9619 -2.15,2.149 v 0 106.007 c 0,1.187 0.963,2.149 2.15,2.149 1.187,0 2.15,-0.962 2.15,-2.149 v 0 -106.007 c 0,-1.1871 -0.963,-2.149 -2.15,-2.149" stroke="none" fill="#565759" fill-rule="nonzero"></path>       <path id="path33" transform="matrix(1,0,0,-1,0,841)" d="m 419.6798,559.9876 c -1.187,0 -2.15,0.962 -2.15,2.149 v 0 126.385 c 0,1.187 0.963,2.149 2.15,2.149 1.187,0 2.15,-0.962 2.15,-2.149 v 0 -126.385 c 0,-1.187 -0.963,-2.149 -2.15,-2.149" stroke="none" fill="#565759" fill-rule="nonzero"></path>       <path id="path34" transform="matrix(1,0,0,-1,0,841)" d="m 430.5764,598.6985 c -1.187,0 -2.15,0.962 -2.15,2.149 v 0 48.963 c 0,1.187 0.963,2.149 2.15,2.149 1.187,0 2.15,-0.962 2.15,-2.149 v 0 -48.963 c 0,-1.187 -0.963,-2.149 -2.15,-2.149" stroke="none" fill="#dd1e25" fill-rule="nonzero"></path>       <path id="path35" transform="matrix(1,0,0,-1,0,841)" d="m 441.473,613.7192 c -1.187,0 -2.15,0.962 -2.15,2.149 v 0 18.922 c 0,1.187 0.963,2.1489 2.15,2.1489 1.187,0 2.15,-0.9619 2.15,-2.1489 v 0 -18.922 c 0,-1.187 -0.963,-2.149 -2.15,-2.149" stroke="none" fill="#dd1e25" fill-rule="nonzero"></path>       <path id="path36" transform="matrix(1,0,0,-1,0,841)" d="m 452.3696,609.5089 c -1.187,0 -2.15,0.962 -2.15,2.149 v 0 27.343 c 0,1.186 0.963,2.149 2.15,2.149 1.187,0 2.15,-0.963 2.15,-2.149 v 0 -27.343 c 0,-1.187 -0.963,-2.149 -2.15,-2.149" stroke="none" fill="#dd1e25" fill-rule="nonzero"></path>     </g>   </g> </svg>
